<svg id="visual" viewBox="0 0 1920 1080" width="1920" height="1080" xmlns="http://www.w3.org/2000/svg" xmlns:xlink="http://www.w3.org/1999/xlink" version="1.1"><path d="M1060 1080L1070 1054.3C1080 1028.7 1100 977.3 1090.2 925.8C1080.3 874.3 1040.7 822.7 1034.7 771.2C1028.7 719.7 1056.3 668.3 1053.2 617C1050 565.7 1016 514.3 985.2 463C954.3 411.7 926.7 360.3 917.2 308.8C907.7 257.3 916.3 205.7 937.7 154.2C959 102.7 993 51.3 1010 25.7L1027 0L1920 0L1920 25.7C1920 51.3 1920 102.7 1920 154.2C1920 205.7 1920 257.3 1920 308.8C1920 360.3 1920 411.7 1920 463C1920 514.3 1920 565.7 1920 617C1920 668.3 1920 719.7 1920 771.2C1920 822.7 1920 874.3 1920 925.8C1920 977.3 1920 1028.7 1920 1054.3L1920 1080Z" fill="#84cc16"></path><path d="M950 1080L957 1054.3C964 1028.7 978 977.3 969.8 925.8C961.7 874.3 931.3 822.7 912.7 771.2C894 719.7 887 668.3 897.5 617C908 565.7 936 514.3 977.7 463C1019.3 411.7 1074.7 360.3 1099.8 308.8C1125 257.3 1120 205.7 1081.7 154.2C1043.3 102.7 971.7 51.3 935.8 25.7L900 0L1920 0L1920 25.7C1920 51.3 1920 102.7 1920 154.2C1920 205.7 1920 257.3 1920 308.8C1920 360.3 1920 411.7 1920 463C1920 514.3 1920 565.7 1920 617C1920 668.3 1920 719.7 1920 771.2C1920 822.7 1920 874.3 1920 925.8C1920 977.3 1920 1028.7 1920 1054.3L1920 1080Z" fill="#72bd1f"></path><path d="M1205 1080L1202.5 1054.3C1200 1028.7 1195 977.3 1204.7 925.8C1214.3 874.3 1238.7 822.7 1232.7 771.2C1226.7 719.7 1190.3 668.3 1147.3 617C1104.3 565.7 1054.7 514.3 1042.5 463C1030.3 411.7 1055.7 360.3 1077.8 308.8C1100 257.3 1119 205.7 1143.2 154.2C1167.3 102.7 1196.7 51.3 1211.3 25.7L1226 0L1920 0L1920 25.7C1920 51.3 1920 102.7 1920 154.2C1920 205.7 1920 257.3 1920 308.8C1920 360.3 1920 411.7 1920 463C1920 514.3 1920 565.7 1920 617C1920 668.3 1920 719.7 1920 771.2C1920 822.7 1920 874.3 1920 925.8C1920 977.3 1920 1028.7 1920 1054.3L1920 1080Z" fill="#61ae24"></path><path d="M1337 1080L1323.7 1054.3C1310.3 1028.7 1283.7 977.3 1268.5 925.8C1253.3 874.3 1249.7 822.7 1223.5 771.2C1197.3 719.7 1148.7 668.3 1129.2 617C1109.7 565.7 1119.3 514.3 1120.8 463C1122.3 411.7 1115.7 360.3 1102.2 308.8C1088.7 257.3 1068.3 205.7 1068.8 154.2C1069.3 102.7 1090.7 51.3 1101.3 25.7L1112 0L1920 0L1920 25.7C1920 51.3 1920 102.7 1920 154.2C1920 205.7 1920 257.3 1920 308.8C1920 360.3 1920 411.7 1920 463C1920 514.3 1920 565.7 1920 617C1920 668.3 1920 719.7 1920 771.2C1920 822.7 1920 874.3 1920 925.8C1920 977.3 1920 1028.7 1920 1054.3L1920 1080Z" fill="#529f27"></path><path d="M1385 1080L1351.5 1054.3C1318 1028.7 1251 977.3 1231.3 925.8C1211.7 874.3 1239.3 822.7 1239 771.2C1238.7 719.7 1210.3 668.3 1226 617C1241.7 565.7 1301.3 514.3 1336.5 463C1371.7 411.7 1382.3 360.3 1388 308.8C1393.7 257.3 1394.3 205.7 1376.2 154.2C1358 102.7 1321 51.3 1302.5 25.7L1284 0L1920 0L1920 25.7C1920 51.3 1920 102.7 1920 154.2C1920 205.7 1920 257.3 1920 308.8C1920 360.3 1920 411.7 1920 463C1920 514.3 1920 565.7 1920 617C1920 668.3 1920 719.7 1920 771.2C1920 822.7 1920 874.3 1920 925.8C1920 977.3 1920 1028.7 1920 1054.3L1920 1080Z" fill="#439028"></path><path d="M1305 1080L1310.3 1054.3C1315.7 1028.7 1326.3 977.3 1339.7 925.8C1353 874.3 1369 822.7 1385.5 771.2C1402 719.7 1419 668.3 1416.3 617C1413.7 565.7 1391.3 514.3 1358.8 463C1326.3 411.7 1283.7 360.3 1284.7 308.8C1285.7 257.3 1330.3 205.7 1344.8 154.2C1359.3 102.7 1343.7 51.3 1335.8 25.7L1328 0L1920 0L1920 25.7C1920 51.3 1920 102.7 1920 154.2C1920 205.7 1920 257.3 1920 308.8C1920 360.3 1920 411.7 1920 463C1920 514.3 1920 565.7 1920 617C1920 668.3 1920 719.7 1920 771.2C1920 822.7 1920 874.3 1920 925.8C1920 977.3 1920 1028.7 1920 1054.3L1920 1080Z" fill="#368128"></path><path d="M1314 1080L1345.3 1054.3C1376.7 1028.7 1439.3 977.3 1445.3 925.8C1451.3 874.3 1400.7 822.7 1395.8 771.2C1391 719.7 1432 668.3 1458.3 617C1484.7 565.7 1496.3 514.3 1491 463C1485.7 411.7 1463.3 360.3 1436.2 308.8C1409 257.3 1377 205.7 1374.5 154.2C1372 102.7 1399 51.3 1412.5 25.7L1426 0L1920 0L1920 25.7C1920 51.3 1920 102.7 1920 154.2C1920 205.7 1920 257.3 1920 308.8C1920 360.3 1920 411.7 1920 463C1920 514.3 1920 565.7 1920 617C1920 668.3 1920 719.7 1920 771.2C1920 822.7 1920 874.3 1920 925.8C1920 977.3 1920 1028.7 1920 1054.3L1920 1080Z" fill="#2a7327"></path><path d="M1407 1080L1424.7 1054.3C1442.3 1028.7 1477.7 977.3 1483.5 925.8C1489.3 874.3 1465.7 822.7 1478.2 771.2C1490.7 719.7 1539.3 668.3 1548.5 617C1557.7 565.7 1527.3 514.3 1501.7 463C1476 411.7 1455 360.3 1441.8 308.8C1428.7 257.3 1423.3 205.7 1442 154.2C1460.7 102.7 1503.3 51.3 1524.7 25.7L1546 0L1920 0L1920 25.7C1920 51.3 1920 102.7 1920 154.2C1920 205.7 1920 257.3 1920 308.8C1920 360.3 1920 411.7 1920 463C1920 514.3 1920 565.7 1920 617C1920 668.3 1920 719.7 1920 771.2C1920 822.7 1920 874.3 1920 925.8C1920 977.3 1920 1028.7 1920 1054.3L1920 1080Z" fill="#1f6425"></path><path d="M1663 1080L1658.3 1054.3C1653.7 1028.7 1644.3 977.3 1640.3 925.8C1636.3 874.3 1637.7 822.7 1624.5 771.2C1611.3 719.7 1583.7 668.3 1588.3 617C1593 565.7 1630 514.3 1643.8 463C1657.7 411.7 1648.3 360.3 1638.8 308.8C1629.3 257.3 1619.7 205.7 1608.2 154.2C1596.7 102.7 1583.3 51.3 1576.7 25.7L1570 0L1920 0L1920 25.7C1920 51.3 1920 102.7 1920 154.2C1920 205.7 1920 257.3 1920 308.8C1920 360.3 1920 411.7 1920 463C1920 514.3 1920 565.7 1920 617C1920 668.3 1920 719.7 1920 771.2C1920 822.7 1920 874.3 1920 925.8C1920 977.3 1920 1028.7 1920 1054.3L1920 1080Z" fill="#165623"></path><path d="M1627 1080L1642.5 1054.3C1658 1028.7 1689 977.3 1701.7 925.8C1714.3 874.3 1708.7 822.7 1705.5 771.2C1702.3 719.7 1701.7 668.3 1707.3 617C1713 565.7 1725 514.3 1720.7 463C1716.3 411.7 1695.7 360.3 1675.7 308.8C1655.7 257.3 1636.3 205.7 1643 154.2C1649.7 102.7 1682.3 51.3 1698.7 25.7L1715 0L1920 0L1920 25.7C1920 51.3 1920 102.7 1920 154.2C1920 205.7 1920 257.3 1920 308.8C1920 360.3 1920 411.7 1920 463C1920 514.3 1920 565.7 1920 617C1920 668.3 1920 719.7 1920 771.2C1920 822.7 1920 874.3 1920 925.8C1920 977.3 1920 1028.7 1920 1054.3L1920 1080Z" fill="#0e491f"></path><path d="M1700 1080L1710.3 1054.3C1720.7 1028.7 1741.3 977.3 1754.5 925.8C1767.7 874.3 1773.3 822.7 1764 771.2C1754.7 719.7 1730.3 668.3 1732 617C1733.7 565.7 1761.3 514.3 1770.3 463C1779.3 411.7 1769.7 360.3 1755.8 308.8C1742 257.3 1724 205.7 1712.3 154.2C1700.7 102.7 1695.3 51.3 1692.7 25.7L1690 0L1920 0L1920 25.7C1920 51.3 1920 102.7 1920 154.2C1920 205.7 1920 257.3 1920 308.8C1920 360.3 1920 411.7 1920 463C1920 514.3 1920 565.7 1920 617C1920 668.3 1920 719.7 1920 771.2C1920 822.7 1920 874.3 1920 925.8C1920 977.3 1920 1028.7 1920 1054.3L1920 1080Z" fill="#083b1b"></path><path d="M1813 1080L1815.3 1054.3C1817.7 1028.7 1822.3 977.3 1830 925.8C1837.7 874.3 1848.3 822.7 1839.5 771.2C1830.7 719.7 1802.3 668.3 1798.8 617C1795.3 565.7 1816.7 514.3 1818.2 463C1819.7 411.7 1801.3 360.3 1804.8 308.8C1808.3 257.3 1833.7 205.7 1844.7 154.2C1855.7 102.7 1852.3 51.3 1850.7 25.7L1849 0L1920 0L1920 25.7C1920 51.3 1920 102.7 1920 154.2C1920 205.7 1920 257.3 1920 308.8C1920 360.3 1920 411.7 1920 463C1920 514.3 1920 565.7 1920 617C1920 668.3 1920 719.7 1920 771.2C1920 822.7 1920 874.3 1920 925.8C1920 977.3 1920 1028.7 1920 1054.3L1920 1080Z" fill="#052e16"></path></svg>